<svg xmlns="http://www.w3.org/2000/svg" fill="none" viewBox="0 0 125 20">
    <path fill="#101113"
          d="M37.986 16.094c-.004-.205-.01-.41-.01-.616V3.835h.972c.435 0 .87.011 1.304-.004.215-.008.348.066.48.238 1.491 1.933 2.99 3.858 4.487 5.786l.157.197V3.85h3.312c0 4.077 0 8.145-.04 12.229-.89.016-1.74.015-2.59.015l-4.728-5.962-.059.027c0 1.96 0 3.92-.034 5.908-1.106.028-2.178.027-3.25.027ZM33.62 16.095v-.965c-.057.012-.09.008-.11.024-1.4 1.123-2.975 1.266-4.617.766-2.333-.71-3.59-2.41-4.006-4.785-.273-1.565-.094-3.088.776-4.447C27.053 4.512 29.076 3.6 31.59 3.79c1.364.103 2.566.63 3.54 1.626.286.294.516.646.782.985l-2.493 1.94c-.358-.686-.895-1.13-1.573-1.405-1.274-.516-2.623-.021-3.263 1.209-.502.965-.575 1.986-.272 3.02.616 2.103 2.606 2.409 4.034 1.682.388-.198.724-.5 1.084-.754l-.044-.102h-1.994V9.58h4.949c0 2.157 0 4.304-.028 6.481-.917.032-1.805.033-2.693.034ZM22.864 6.354c2.46 3.696.767 8.482-3.392 9.64-3.445.958-7.016-1.376-7.585-4.958-.558-3.517 1.73-6.73 5.194-7.201 2.382-.324 4.32.538 5.783 2.519Zm-7.291 1.798c-.541 1.09-.563 2.215-.145 3.339.418 1.12 1.334 1.72 2.512 1.715 1.15-.005 2.03-.615 2.443-1.717.328-.88.389-1.781.122-2.687-.327-1.109-1.031-1.84-2.174-2.01-1.176-.175-2.124.238-2.758 1.36ZM91.208 8.505v2.703H86.86v1.947h5.24c0 .994 0 1.956-.05 2.93-.645.01-1.24.01-1.836.01l-6.687-.009V3.854h8.422c0 .96 0 1.913-.036 2.892-1.71.028-3.383.028-5.055.028v1.73h4.349ZM4.607 7.39c-1.293 1.26-1.333 3.68-.14 5.01 1.139 1.27 3.622 1.038 4.3-.683.892.541 1.78 1.08 2.741 1.665-.267.367-.486.752-.78 1.06-1.01 1.059-2.294 1.538-3.701 1.711C3.003 16.65.172 13.123.234 9.72c.053-2.854 2.23-5.428 5.01-5.852 1.79-.273 3.462-.01 4.925 1.157.482.384.872.85 1.162 1.423l-2.513 1.82c-.38-.893-1.068-1.353-1.98-1.476-.81-.11-1.573.01-2.231.598ZM75.433 16.09 70.967 3.866h3.492l2.321 7.89.057.015 2.297-7.92h3.48c-1.482 4.091-2.953 8.155-4.469 12.232-.933.011-1.823.01-2.712.007ZM58.806 16.101c-.016-.015-.032-.03-.05-.085l-.001-9.25h-3.47V3.855c.093-.008.17-.02.25-.02h9.815c.05 0 .101.006.17.053.015.99.012 1.936.01 2.881 0 0 .006.002-.022.002l-3.431.001c0 1.229-.002 2.42 0 3.612.002 1.882.006 3.764.01 5.646 0 0-.01.028-.04.046-1.1.02-2.17.022-3.241.025ZM115.487 16.1c-.012-.08-.034-.158-.034-.237-.002-3.918-.002-7.836-.001-11.754 0-.08.009-.16.016-.259.113-.006.211-.014.309-.015 1.79 0 3.58.038 5.368-.011 1.641-.046 2.605 1.044 2.946 2.325.371 1.393-.228 2.865-1.446 3.573l-.14.084c.077.034.122.057.169.075 1.29.508 2.056 1.685 2.032 3.125-.021 1.268-.845 2.39-2.11 2.835-.321.114-.665.163-1.05.246-2.054.007-4.056.01-6.059.013Zm5.95-5.557h-4.436v4.18c1.485 0 2.958 0 4.476.005.079-.02.158-.035.235-.058.917-.278 1.511-1.191 1.432-2.2-.078-1.003-.756-1.789-1.707-1.927Zm-4.26-1.266c1.183 0 2.366-.006 3.549.002.594.004 1.095-.191 1.466-.666.561-.718.643-1.514.286-2.345-.346-.803-.984-1.113-1.828-1.093-.93.022-1.86.005-2.79.005h-.828c-.022.049-.038.067-.038.084-.003 1.276-.006 2.55-.001 3.826.001.062.084.124.184.187ZM105.701 12.638c-.423 1.063-.852 2.123-1.263 3.191-.08.206-.176.28-.393.271-.434-.018-.868-.005-1.344-.005.168-.423.322-.82.481-1.213 1.447-3.586 2.896-7.17 4.335-10.76.085-.213.178-.311.411-.291.329.028.733-.087.969.07.225.149.279.568.401.87l4.417 10.992c.041.102.073.207.114.325h-1.613c-.461-1.156-.923-2.314-1.406-3.516-1.664-.05-3.306-.056-4.948-.056-.054 0-.107.08-.161.122Zm2.465-6.723-2.114 5.356h4.39l-2.151-5.606c-.043.087-.073.149-.125.25ZM66.754 16.092c-.003-1.686-.007-3.371-.008-5.057-.002-2.272 0-4.544 0-6.816v-.36h3.296c0 4.064 0 8.122-.036 12.208-1.108.027-2.18.026-3.252.025ZM50.792 16.098c-.008-.101-.024-.203-.024-.304V3.85h3.301c0 4.068 0 8.125-.03 12.213-1.103.032-2.175.033-3.247.034ZM94.064 16.09V3.853h1.511v10.853h6.721c0 .472 0 .92-.05 1.378-2.76.009-5.471.006-8.182.004Z"/>
</svg>